<svg width="961" height="287" viewBox="0 0 961 287" fill="none" xmlns="http://www.w3.org/2000/svg">
<path d="M172.596 0.792969C175.83 0.292322 180.948 0.447995 184.763 1.14453L185.508 1.29102C198.615 4.06613 209.703 14.6778 213.107 27.627L213.264 28.2451C213.7 30.0432 214.037 34.1389 213.999 37.3281C213.893 46.1567 211.066 53.2427 205.281 58.8799C199.48 64.5333 190.665 68.7668 178.519 71.793C161.668 75.9916 152.91 80.3275 143.766 89.0576C132.779 99.5468 122.478 120.019 118.642 138.899C113.989 161.8 116.775 187.04 126.357 208.817C138.986 237.519 166.358 261.967 197.379 272.274C204.7 274.707 210.059 276.178 215.832 277.028C221.602 277.878 227.769 278.107 236.706 278.07C248.153 278.024 250.532 277.834 257.396 276.396C281.666 271.314 301.498 260.386 318.754 242.586C328.014 233.034 333.251 225.721 338.992 214.322C344.178 204.025 347.282 195.167 349.679 183.819C351.039 177.379 351.32 175.149 351.384 166.205L351.4 161.929C351.422 150.105 351.227 147.031 350.042 140.817C347.362 126.774 340.771 110.167 333.353 98.7783C330.933 95.0644 330.258 93.4496 330.258 91.8398C330.258 90.6217 330.598 89.6035 331.208 88.8213C331.818 88.0391 332.722 87.4608 333.901 87.165C334.755 86.951 335.522 86.9786 336.305 87.3115C337.103 87.6511 337.958 88.3254 338.942 89.4805C340.92 91.8003 343.303 95.9125 346.73 102.62C356.549 121.832 360.693 138.867 360.715 160.087C360.75 195.154 347.746 226.381 323.154 250.295C310.504 262.596 298.262 270.67 282.531 277.09C238.638 295.002 187.862 286.701 152.579 255.854C133.491 239.164 117.805 211.66 112.53 185.615C107.695 161.738 109.839 137.553 118.716 115.777C128.117 92.7137 139.905 79.2476 158.17 70.6064C163.292 68.183 166.022 67.3 180.019 63.5703C182.591 62.8847 187.213 61.088 190.312 59.5742C197.63 55.9995 202.529 50.9713 204.739 44.9971C206.951 39.0202 206.444 32.1693 203.091 25.0078C198.156 14.4708 185.768 7.88536 174.439 9.79102C162.237 11.8432 153.576 20.7298 151.383 33.3975C148.74 48.6606 142.467 59.6204 134.114 63.9736C129.952 66.1438 124.095 65.8856 116.808 63.0332C108.17 59.6525 108.193 59.6591 103.84 58.6543C98.7932 57.4893 92.0775 57.4479 87.8438 58.5742C79.6568 60.7523 72.2797 67.1714 63.248 79.7676C57.3062 88.0545 54.8291 90.4722 50.4121 92.4932C43.5844 95.6163 35.9554 94.862 18.834 89.0859C15.5787 87.9877 12.8765 87.1477 10.9844 86.6348C10.0413 86.3791 9.28582 86.2005 8.75879 86.1143C8.50127 86.0721 8.26802 86.0472 8.08594 86.0547C8.00143 86.0582 7.8761 86.0702 7.75586 86.124C7.61843 86.1856 7.40993 86.3474 7.41016 86.6426L7.42676 86.8174C7.4365 86.8758 7.44915 86.933 7.46191 86.9844C7.49021 87.0982 7.53009 87.231 7.57812 87.377C7.67445 87.6697 7.81167 88.0374 7.97754 88.4531C8.30987 89.2859 8.76673 90.3312 9.26758 91.3896C14.6369 102.73 25.2045 113.771 35.8096 119.102C39.2347 120.823 42.0171 121.911 45.1816 122.562C48.3391 123.212 51.855 123.421 56.7402 123.414C64.0013 123.403 66.4486 123.14 71.9785 121.757C82.4953 119.128 92.9482 114.209 99.5566 108.755C101.226 107.378 102.443 106.607 103.513 106.286C104.548 105.975 105.488 106.074 106.643 106.552C107.694 106.987 108.349 107.498 108.757 108.175C109.17 108.862 109.369 109.788 109.369 111.135C109.369 112.325 109.209 113.053 108.677 113.773C108.114 114.536 107.111 115.326 105.292 116.541C98.1602 121.304 86.15 126.042 75.1514 128.415C71.0007 129.31 64.9616 129.795 59.1387 129.843C53.3075 129.89 47.7615 129.499 44.582 128.671C27.9486 124.341 13.2955 111.808 4.71973 94.5186C2.18088 89.3994 0.831372 85.8947 0.553711 83.5322C0.416023 82.3605 0.549784 81.5276 0.879883 80.9287C1.20406 80.3406 1.75558 79.9093 2.60254 79.6143H2.60352C3.18226 79.4126 3.70913 79.2925 4.38184 79.2861C5.06522 79.2796 5.91949 79.3899 7.14941 79.6768C9.61794 80.2525 13.4945 81.5127 20.3574 83.832C26.8859 86.0384 31.896 87.499 35.7969 88.292C39.6906 89.0836 42.5264 89.2206 44.6846 88.7373C47.4414 88.1201 49.4342 87.3079 51.5254 85.5059C53.5892 83.7274 55.7342 80.9959 58.8418 76.5957C61.2058 73.2481 66.0643 67.5978 69.627 64.0566C74.4309 59.2816 78.4848 56.1973 82.8271 54.3135C87.1648 52.4317 91.831 51.7304 97.8877 51.7871C104.588 51.8503 109.158 52.7423 118.523 55.8408C120.253 56.4131 122.001 56.9167 123.425 57.2676C124.136 57.4429 124.773 57.5813 125.288 57.6709C125.784 57.757 126.223 57.8087 126.51 57.7803L126.509 57.7793C127.35 57.6958 128.39 57.5928 128.819 57.5498C129.116 57.5201 129.43 57.3892 129.729 57.2227C130.036 57.0511 130.371 56.8183 130.719 56.5439C131.415 55.9949 132.197 55.252 132.971 54.4209C134.514 52.7642 136.077 50.7023 136.896 49.0322C137.862 47.0594 138.905 44.1352 139.705 41.3789C140.5 38.6401 141.08 35.9838 141.08 34.5713C141.08 33.1135 141.657 30.4904 142.554 27.6182C143.446 24.7622 144.632 21.7282 145.812 19.4688C150.802 9.91297 161.375 2.53038 172.596 0.792969ZM417.976 48.874C419.344 48.8245 420.525 49.4428 421.983 50.9004C422.971 51.8876 423.424 52.4211 423.632 52.9492C423.831 53.4566 423.824 54.0156 423.673 55.1436C423.468 56.6695 422.931 57.8552 422.008 58.8096C421.076 59.7726 419.717 60.5355 417.81 61.1484C403.883 65.6251 390.042 78.6255 383.079 93.708C377.707 105.346 375.664 115.146 375.692 129.093C375.725 144.541 378.175 154.884 385.226 169.354C386.229 171.415 387.14 173.42 387.8 174.99C388.13 175.776 388.395 176.447 388.576 176.96C388.667 177.217 388.735 177.428 388.779 177.591C388.802 177.672 388.817 177.736 388.826 177.785C388.835 177.831 388.836 177.852 388.836 177.854C388.836 181.063 386.548 182.992 383.922 183.356C381.291 183.721 378.414 182.497 377.295 179.416C373.932 170.159 371.036 155.819 370.074 143.628C368.47 123.291 372.122 103.473 380.583 86.5322C388.041 71.6015 397.972 60.5727 412.275 51.3408C414.824 49.6961 416.555 48.9256 417.976 48.874Z" fill="#4F4F4F" stroke="#908F90"/>
<path d="M488.725 136.641C490.245 136.641 492.265 137.201 494.785 138.321C497.345 139.441 499.645 141.361 501.685 144.081C503.765 146.761 504.805 150.341 504.805 154.821C504.805 161.661 502.585 166.821 498.145 170.301C493.705 173.741 487.285 175.461 478.885 175.461H458.185C456.105 175.461 454.505 174.921 453.385 173.841C452.305 172.721 451.765 171.101 451.765 168.981V107.661C451.765 105.541 452.305 103.941 453.385 102.861C454.505 101.741 456.105 101.181 458.185 101.181H475.885C484.085 101.181 490.545 102.481 495.265 105.081C499.985 107.681 502.345 112.441 502.345 119.361C502.345 123.561 501.465 126.961 499.705 129.561C497.985 132.121 496.045 133.941 493.885 135.021C491.765 136.101 490.045 136.641 488.725 136.641ZM476.005 167.661C482.285 167.661 486.925 166.541 489.925 164.301C492.965 162.021 494.485 158.581 494.485 153.981C494.485 149.541 492.985 146.241 489.985 144.081C486.985 141.881 483.065 140.781 478.225 140.781H461.905V167.661H476.005ZM477.745 133.401C482.225 133.401 485.765 132.301 488.365 130.101C490.965 127.901 492.265 124.801 492.265 120.801C492.265 116.321 490.805 113.241 487.885 111.561C484.965 109.841 480.885 108.981 475.645 108.981H461.905V133.401H477.745ZM536.202 134.721H553.902C558.382 134.721 561.902 133.581 564.462 131.301C567.062 128.981 568.362 125.701 568.362 121.461C568.362 117.301 567.022 114.181 564.342 112.101C561.702 110.021 558.002 108.981 553.242 108.981H536.202V134.721ZM526.062 107.661C526.062 105.541 526.602 103.941 527.682 102.861C528.802 101.741 530.402 101.181 532.482 101.181H554.682C561.482 101.181 567.162 102.681 571.722 105.681C576.282 108.681 578.562 113.801 578.562 121.041C578.562 126.361 577.242 130.681 574.602 134.001C571.962 137.321 568.582 139.681 564.462 141.081L576.882 168.921C577.362 170.121 577.602 171.181 577.602 172.101C577.602 173.381 577.182 174.401 576.342 175.161C575.542 175.881 574.422 176.241 572.982 176.241C571.262 176.241 569.982 175.821 569.142 174.981C568.302 174.141 567.482 172.721 566.682 170.721L554.382 142.521H536.202V169.761C536.202 171.841 535.762 173.441 534.882 174.561C534.002 175.681 532.742 176.241 531.102 176.241C529.462 176.241 528.202 175.701 527.322 174.621C526.482 173.501 526.062 171.881 526.062 169.761V107.661ZM598.739 176.601C597.379 176.601 596.279 176.221 595.439 175.461C594.599 174.661 594.179 173.561 594.179 172.161C594.179 171.401 594.359 170.481 594.719 169.401L616.199 106.281C617.279 102.601 619.499 100.761 622.859 100.761H626.999C628.719 100.761 630.119 101.221 631.199 102.141C632.319 103.061 633.159 104.441 633.719 106.281L655.199 169.401C655.519 170.361 655.679 171.281 655.679 172.161C655.679 173.601 655.259 174.701 654.419 175.461C653.579 176.221 652.459 176.601 651.059 176.601C649.419 176.601 648.179 176.181 647.339 175.341C646.539 174.461 645.859 173.001 645.299 170.961L640.019 154.881H609.839L604.559 170.961C603.999 173.001 603.299 174.461 602.459 175.341C601.619 176.181 600.379 176.601 598.739 176.601ZM637.499 147.141L625.499 110.721C625.259 109.921 625.079 109.201 624.959 108.561C624.839 109.201 624.659 109.921 624.419 110.721L612.419 147.141H637.499ZM698.836 175.881C694.756 175.881 692.116 174.001 690.916 170.241L670.036 107.781C669.716 106.901 669.556 106.041 669.556 105.201C669.556 103.721 670.036 102.581 670.996 101.781C671.956 100.981 673.156 100.581 674.596 100.581C676.196 100.581 677.356 101.021 678.076 101.901C678.836 102.781 679.516 104.241 680.116 106.281L699.436 167.481L718.876 106.281C719.436 104.281 720.116 102.841 720.916 101.961C721.716 101.041 722.916 100.581 724.516 100.581C725.996 100.581 727.156 101.001 727.996 101.841C728.876 102.641 729.316 103.801 729.316 105.321C729.316 106.161 729.176 106.981 728.896 107.781L707.956 170.241C706.756 174.001 704.096 175.881 699.976 175.881H698.836ZM747.333 176.601C745.973 176.601 744.873 176.221 744.033 175.461C743.193 174.661 742.773 173.561 742.773 172.161C742.773 171.401 742.953 170.481 743.313 169.401L764.793 106.281C765.873 102.601 768.093 100.761 771.453 100.761H775.593C777.313 100.761 778.713 101.221 779.793 102.141C780.913 103.061 781.753 104.441 782.313 106.281L803.793 169.401C804.113 170.361 804.273 171.281 804.273 172.161C804.273 173.601 803.853 174.701 803.013 175.461C802.173 176.221 801.053 176.601 799.653 176.601C798.013 176.601 796.773 176.181 795.933 175.341C795.133 174.461 794.453 173.001 793.893 170.961L788.613 154.881H758.433L753.153 170.961C752.593 173.001 751.893 174.461 751.053 175.341C750.213 176.181 748.973 176.601 747.333 176.601ZM786.093 147.141L774.093 110.721C773.853 109.921 773.673 109.201 773.553 108.561C773.433 109.201 773.253 109.921 773.013 110.721L761.013 147.141H786.093ZM847.61 176.721C835.69 176.721 826.87 173.601 821.15 167.361C819.27 165.681 818.33 163.841 818.33 161.841C818.33 160.681 818.73 159.681 819.53 158.841C820.33 158.001 821.39 157.581 822.71 157.581C823.83 157.581 824.83 157.861 825.71 158.421C826.63 158.981 827.57 159.781 828.53 160.821C830.57 163.421 833.09 165.421 836.09 166.821C839.09 168.181 842.99 168.861 847.79 168.861C851.51 168.861 854.79 168.361 857.63 167.361C860.51 166.361 862.73 164.921 864.29 163.041C865.85 161.121 866.63 158.881 866.63 156.321C866.63 153.961 865.87 151.921 864.35 150.201C862.87 148.481 860.67 146.981 857.75 145.701C854.83 144.381 851.07 143.101 846.47 141.861C840.39 140.301 835.43 138.541 831.59 136.581C827.79 134.581 824.93 132.181 823.01 129.381C821.09 126.541 820.13 123.141 820.13 119.181C820.13 115.461 821.33 112.181 823.73 109.341C826.17 106.501 829.55 104.321 833.87 102.801C838.19 101.241 843.07 100.461 848.51 100.461C853.63 100.461 858.17 101.221 862.13 102.741C866.13 104.261 869.37 106.461 871.85 109.341C873.69 110.981 874.61 112.701 874.61 114.501C874.61 115.741 874.21 116.741 873.41 117.501C872.61 118.261 871.61 118.641 870.41 118.641C869.33 118.641 868.33 118.341 867.41 117.741C866.53 117.141 865.67 116.341 864.83 115.341C861.47 110.661 855.97 108.321 848.33 108.321C844.97 108.321 841.93 108.781 839.21 109.701C836.53 110.621 834.41 111.901 832.85 113.541C831.33 115.181 830.57 117.021 830.57 119.061C830.57 121.501 831.27 123.561 832.67 125.241C834.11 126.921 836.19 128.361 838.91 129.561C841.63 130.761 845.29 132.001 849.89 133.281C856.13 135.001 861.19 136.841 865.07 138.801C868.99 140.761 871.97 143.121 874.01 145.881C876.05 148.601 877.07 151.901 877.07 155.781C877.07 160.101 875.85 163.841 873.41 167.001C871.01 170.161 867.59 172.581 863.15 174.261C858.71 175.901 853.53 176.721 847.61 176.721ZM921.906 176.721C909.986 176.721 901.166 173.601 895.446 167.361C893.566 165.681 892.626 163.841 892.626 161.841C892.626 160.681 893.026 159.681 893.826 158.841C894.626 158.001 895.686 157.581 897.006 157.581C898.126 157.581 899.126 157.861 900.006 158.421C900.926 158.981 901.866 159.781 902.826 160.821C904.866 163.421 907.386 165.421 910.386 166.821C913.386 168.181 917.286 168.861 922.086 168.861C925.806 168.861 929.086 168.361 931.926 167.361C934.806 166.361 937.026 164.921 938.586 163.041C940.146 161.121 940.926 158.881 940.926 156.321C940.926 153.961 940.166 151.921 938.646 150.201C937.166 148.481 934.966 146.981 932.046 145.701C929.126 144.381 925.366 143.101 920.766 141.861C914.686 140.301 909.726 138.541 905.886 136.581C902.086 134.581 899.226 132.181 897.306 129.381C895.386 126.541 894.426 123.141 894.426 119.181C894.426 115.461 895.626 112.181 898.026 109.341C900.466 106.501 903.846 104.321 908.166 102.801C912.486 101.241 917.366 100.461 922.806 100.461C927.926 100.461 932.466 101.221 936.426 102.741C940.426 104.261 943.666 106.461 946.146 109.341C947.986 110.981 948.906 112.701 948.906 114.501C948.906 115.741 948.506 116.741 947.706 117.501C946.906 118.261 945.906 118.641 944.706 118.641C943.626 118.641 942.626 118.341 941.706 117.741C940.826 117.141 939.966 116.341 939.126 115.341C935.766 110.661 930.266 108.321 922.626 108.321C919.266 108.321 916.226 108.781 913.506 109.701C910.826 110.621 908.706 111.901 907.146 113.541C905.626 115.181 904.866 117.021 904.866 119.061C904.866 121.501 905.566 123.561 906.966 125.241C908.406 126.921 910.486 128.361 913.206 129.561C915.926 130.761 919.586 132.001 924.186 133.281C930.426 135.001 935.486 136.841 939.366 138.801C943.286 140.761 946.266 143.121 948.306 145.881C950.346 148.601 951.366 151.901 951.366 155.781C951.366 160.101 950.146 163.841 947.706 167.001C945.306 170.161 941.886 172.581 937.446 174.261C933.006 175.901 927.826 176.721 921.906 176.721Z" fill="#4F4F4F"/>
</svg>
